<?xml version="1.0" encoding="utf-8"?>
<!-- Generator: Adobe Illustrator 16.0.0, SVG Export Plug-In . SVG Version: 6.00 Build 0)  -->
<!DOCTYPE svg PUBLIC "-//W3C//DTD SVG 1.1//EN" "http://www.w3.org/Graphics/SVG/1.1/DTD/svg11.dtd">
<svg version="1.1" id="Layer_1" xmlns="http://www.w3.org/2000/svg" xmlns:xlink="http://www.w3.org/1999/xlink" x="0px" y="0px"
	 width="419px" height="66px" viewBox="0 0 419 66" enable-background="new 0 0 419 66" xml:space="preserve">
<g>
	<g>
		<path d="M156.012,10.811c-6.095,0-11.292,2.155-15.594,6.467c-4.305,4.313-6.455,9.521-6.455,15.628
			c0,6.106,2.15,11.327,6.455,15.663c4.301,4.334,9.499,6.502,15.594,6.502c6.094,0,11.304-2.168,15.63-6.502
			c4.327-4.336,6.49-9.557,6.49-15.663c0-6.107-2.164-11.316-6.49-15.628C167.315,12.966,162.105,10.811,156.012,10.811z
			 M163.375,40.282c-2.072,2.076-4.525,3.112-7.363,3.112c-2.791,0-5.232-1.036-7.328-3.112c-2.092-2.074-3.139-4.533-3.139-7.376
			c0-2.797,1.046-5.244,3.139-7.342c2.095-2.097,4.537-3.146,7.328-3.146c2.837,0,5.291,1.049,7.363,3.146
			c2.068,2.098,3.104,4.545,3.104,7.342C166.479,35.749,165.443,38.208,163.375,40.282z"/>
		<polygon points="289.983,36.263 272.329,7.664 262.282,13.887 289.983,58.776 317.684,13.887 307.636,7.664 		"/>
		<path d="M341.897,10.811c-6.096,0-11.293,2.155-15.596,6.467c-4.305,4.313-6.455,9.521-6.455,15.628
			c0,6.106,2.15,11.327,6.455,15.663c4.303,4.334,9.5,6.502,15.596,6.502c6.093,0,11.302-2.168,15.63-6.502
			c4.324-4.336,6.489-9.557,6.489-15.663c0-6.107-2.165-11.316-6.489-15.628C353.199,12.966,347.99,10.811,341.897,10.811z
			 M349.258,40.282c-2.07,2.076-4.524,3.112-7.36,3.112c-2.792,0-5.233-1.036-7.328-3.112c-2.092-2.074-3.14-4.533-3.14-7.376
			c0-2.797,1.048-5.244,3.14-7.342c2.095-2.097,4.536-3.146,7.328-3.146c2.836,0,5.29,1.049,7.36,3.146
			c2.07,2.098,3.105,4.545,3.105,7.342C352.363,35.749,351.328,38.208,349.258,40.282z"/>
		<polygon points="417.813,16.613 409.649,8.433 393.53,24.585 377.69,8.433 369.527,16.613 385.437,32.766 369.527,48.638 
			377.69,56.82 393.742,40.878 409.649,56.82 417.813,48.638 401.696,32.556 		"/>
		<path d="M110.867,11.684c-2.013-0.628-4.128-0.943-6.35-0.943c-3.819,0-7.306,0.902-10.466,2.699
			c-1.383,0.785-2.703,1.742-3.96,2.871L82.285,8.49l-8.24,8.256l8.351,8.369V65h11.654V52.402c2.729,1.535,5.702,2.402,8.921,2.613
			c0.076,0.004,0.151,0.012,0.228,0.016c0.426,0.024,0.856,0.039,1.291,0.039c0.009,0,0.018,0.001,0.026,0.001
			c6.094,0,11.304-2.168,15.63-6.502c4.326-4.336,6.49-9.557,6.49-15.663c0-6.107-2.164-11.316-6.49-15.628
			C117.408,14.549,114.313,12.686,110.867,11.684z M97.156,40.282c-2.072-2.074-3.105-4.533-3.105-7.376
			c0-2.797,1.033-5.244,3.105-7.342c2.068-2.097,4.523-3.146,7.361-3.146c2.792,0,5.234,1.049,7.327,3.146
			c2.094,2.098,3.141,4.545,3.141,7.342c0,2.843-1.047,5.302-3.141,7.376c-2.093,2.076-4.535,3.112-7.327,3.112
			C101.679,43.395,99.224,42.358,97.156,40.282z"/>
		<path d="M229.835,1h-11.652v12.598c-2.729-1.533-5.703-2.404-8.923-2.613c-0.075-0.005-0.151-0.011-0.226-0.016
			c-0.428-0.024-0.856-0.04-1.29-0.04c-0.011,0-0.019,0-0.027,0c-6.094,0-11.305,2.167-15.63,6.502
			c-4.326,4.335-6.489,9.555-6.489,15.663c0,6.107,2.163,11.315,6.489,15.628c2.739,2.73,5.834,4.593,9.28,5.594
			c2.012,0.629,4.129,0.944,6.35,0.944c3.817,0,7.306-0.902,10.466-2.699c1.383-0.787,2.702-1.744,3.958-2.871l7.806,7.821
			l8.24-8.257l-8.353-8.369V1z M200.389,40.438c-2.092-2.098-3.139-4.546-3.139-7.343c0-2.844,1.046-5.303,3.139-7.376
			c2.092-2.076,4.535-3.112,7.328-3.112c2.837,0,5.291,1.037,7.361,3.112c2.071,2.074,3.105,4.533,3.105,7.376
			c0,2.797-1.034,5.245-3.105,7.343c-2.07,2.097-4.524,3.145-7.361,3.145C204.924,43.582,202.481,42.534,200.389,40.438z"/>
	</g>
	<rect x="1" y="32" fill="#F15A29" width="11" height="24"/>
	<rect x="17" y="38" fill="#27AAE1" width="12" height="18"/>
	<rect x="33" y="16" fill="#8DC63F" width="12" height="40"/>
	<rect x="50" y="26" fill="#7F3F98" width="12" height="30"/>
</g>
</svg>
